<svg width="32" height="32" viewBox="0 0 32 32" fill="none" xmlns="http://www.w3.org/2000/svg">
<rect x="0.0958252" width="31.8144" height="31.8144" rx="15.9072" fill="#544F0C"/>
<path d="M11.9801 21V19.3381L15.8632 15.7425C16.1935 15.4229 16.4705 15.1353 16.6942 14.8796C16.9215 14.6239 17.0937 14.3736 17.2109 14.1286C17.3281 13.88 17.3867 13.6119 17.3867 13.3242C17.3867 13.0046 17.3139 12.7294 17.1683 12.4986C17.0227 12.2642 16.8238 12.0849 16.5717 11.9606C16.3195 11.8327 16.0337 11.7688 15.7141 11.7688C15.3803 11.7688 15.0891 11.8363 14.8405 11.9712C14.5919 12.1062 14.4002 12.2997 14.2652 12.5518C14.1303 12.804 14.0628 13.104 14.0628 13.4521H11.8735C11.8735 12.7383 12.0351 12.1186 12.3583 11.593C12.6814 11.0675 13.1342 10.6609 13.7166 10.3732C14.299 10.0856 14.9701 9.94176 15.7301 9.94176C16.5113 9.94176 17.1914 10.0803 17.7702 10.3572C18.3526 10.6307 18.8053 11.0107 19.1285 11.4972C19.4516 11.9837 19.6132 12.5412 19.6132 13.1697C19.6132 13.5817 19.5316 13.9883 19.3682 14.3896C19.2084 14.7908 18.9225 15.2365 18.5106 15.7266C18.0987 16.2131 17.5181 16.7972 16.7688 17.479L15.1761 19.0398V19.1143H19.757V21H11.9801Z" fill="#FEF237"/>
</svg>
