<svg width="33" height="32" viewBox="0 0 33 32" fill="none" xmlns="http://www.w3.org/2000/svg">
<rect x="0.550903" width="31.8144" height="31.8144" rx="15.9072" fill="#544F0C"/>
<path d="M16.4675 21.1491C15.672 21.1491 14.9635 21.0124 14.3421 20.739C13.7242 20.462 13.2359 20.082 12.8773 19.5991C12.5221 19.1126 12.3393 18.5515 12.3286 17.9158H14.651C14.6652 18.1822 14.7523 18.4165 14.9121 18.619C15.0754 18.8178 15.292 18.9723 15.5619 19.0824C15.8318 19.1925 16.1354 19.2475 16.4728 19.2475C16.8243 19.2475 17.1351 19.1854 17.405 19.0611C17.6748 18.9368 17.8861 18.7646 18.0388 18.5444C18.1915 18.3242 18.2679 18.0703 18.2679 17.7827C18.2679 17.4915 18.1862 17.234 18.0228 17.0103C17.863 16.783 17.6322 16.6055 17.3304 16.4776C17.0321 16.3498 16.677 16.2859 16.265 16.2859H15.2476V14.592H16.265C16.613 14.592 16.9202 14.5316 17.1866 14.4109C17.4564 14.2901 17.666 14.1232 17.8151 13.9102C17.9643 13.6935 18.0388 13.4414 18.0388 13.1538C18.0388 12.8803 17.9731 12.6406 17.8417 12.4347C17.7139 12.2251 17.5328 12.0618 17.2984 11.9446C17.0676 11.8274 16.7977 11.7688 16.4888 11.7688C16.1763 11.7688 15.8904 11.8256 15.6312 11.9393C15.3719 12.0494 15.1642 12.2074 15.0079 12.4134C14.8517 12.6193 14.7682 12.8608 14.7576 13.1378H12.547C12.5577 12.5092 12.737 11.9553 13.085 11.4759C13.433 10.9964 13.9018 10.6218 14.4912 10.3519C15.0843 10.0785 15.7537 9.94176 16.4994 9.94176C17.2523 9.94176 17.911 10.0785 18.4756 10.3519C19.0403 10.6254 19.4788 10.9947 19.7913 11.4599C20.1074 11.9215 20.2636 12.44 20.2601 13.0153C20.2636 13.6261 20.0736 14.1357 19.6901 14.544C19.3101 14.9524 18.8148 15.2116 18.204 15.3217V15.407C19.0065 15.5099 19.6173 15.7887 20.0363 16.2433C20.4589 16.6942 20.6684 17.2589 20.6649 17.9371C20.6684 18.5586 20.4891 19.1108 20.1269 19.5938C19.7682 20.0767 19.2728 20.4567 18.6407 20.7337C18.0086 21.0107 17.2842 21.1491 16.4675 21.1491Z" fill="#FEF237"/>
</svg>
