<svg width="32" height="32" viewBox="0 0 32 32" fill="none" xmlns="http://www.w3.org/2000/svg">
<rect x="0.0958252" width="31.8144" height="31.8144" rx="15.9072" fill="#261544"/>
<path d="M15.9644 21.1491C15.2116 21.1491 14.5404 21.0107 13.9509 20.7337C13.365 20.4567 12.8998 20.0749 12.5553 19.5884C12.2109 19.1019 12.0315 18.5444 12.0173 17.9158H14.2546C14.2794 18.3384 14.457 18.6811 14.7872 18.9439C15.1175 19.2067 15.5099 19.3381 15.9644 19.3381C16.3266 19.3381 16.6463 19.2582 16.9232 19.0984C17.2038 18.935 17.4222 18.7095 17.5784 18.4219C17.7382 18.1307 17.8181 17.7969 17.8181 17.4205C17.8181 17.0369 17.7365 16.6996 17.5731 16.4084C17.4133 16.1172 17.1914 15.8899 16.9073 15.7266C16.6232 15.5632 16.2982 15.4798 15.9325 15.4762C15.6129 15.4762 15.3021 15.5419 15.0003 15.6733C14.702 15.8047 14.4694 15.984 14.3025 16.2113L12.2517 15.8438L12.7684 10.0909H19.4374V11.9766H14.67L14.3877 14.7092H14.4516C14.6434 14.4393 14.9328 14.2156 15.3199 14.038C15.707 13.8604 16.1402 13.7717 16.6196 13.7717C17.2766 13.7717 17.8625 13.9261 18.3774 14.2351C18.8923 14.544 19.299 14.9684 19.5972 15.5082C19.8955 16.0444 20.0429 16.6623 20.0394 17.3619C20.0429 18.0969 19.8725 18.7504 19.528 19.3221C19.1871 19.8903 18.7095 20.3377 18.0951 20.6644C17.4843 20.9876 16.7741 21.1491 15.9644 21.1491Z" fill="#5C00FF"/>
</svg>
