<svg width="48" height="48" viewBox="0 0 48 48" fill="none" xmlns="http://www.w3.org/2000/svg">
<rect width="48" height="48" rx="24" fill="#261544"/>
<path d="M24 17.0001C24.0011 16.6001 23.9223 16.2039 23.7681 15.8348C23.614 15.4658 23.3876 15.1313 23.1022 14.851C22.8169 14.5707 22.4784 14.3503 22.1066 14.2028C21.7348 14.0552 21.3373 13.9835 20.9374 13.9919C20.5376 14.0002 20.1434 14.0884 19.7781 14.2513C19.4128 14.4142 19.0838 14.6485 18.8104 14.9405C18.5369 15.2324 18.3247 15.576 18.186 15.9512C18.0473 16.3264 17.9851 16.7255 18.003 17.1251C17.4152 17.2762 16.8695 17.5591 16.4072 17.9524C15.9449 18.3456 15.5782 18.8389 15.3348 19.3949C15.0914 19.9509 14.9777 20.5549 15.0023 21.1614C15.027 21.7678 15.1893 22.3606 15.477 22.8951C14.9711 23.306 14.5734 23.8343 14.3183 24.434C14.0632 25.0337 13.9585 25.6866 14.0133 26.336C14.0681 26.9854 14.2808 27.6116 14.6328 28.1601C14.9847 28.7085 15.4654 29.1627 16.033 29.4831C15.9629 30.0253 16.0047 30.5761 16.1558 31.1016C16.307 31.627 16.5642 32.1159 16.9117 32.538C17.2592 32.9601 17.6896 33.3065 18.1762 33.5558C18.6628 33.8051 19.1953 33.952 19.7409 33.9874C20.2865 34.0228 20.8336 33.946 21.3483 33.7617C21.8631 33.5774 22.3346 33.2895 22.7337 32.9158C23.1328 32.5421 23.4511 32.0906 23.6689 31.5891C23.8867 31.0876 23.9994 30.5468 24 30V17.0001Z" stroke="#5C00FF" stroke-width="2" stroke-linecap="round" stroke-linejoin="round"/>
<path d="M24 17.0001C23.9988 16.6001 24.0776 16.2039 24.2318 15.8348C24.386 15.4658 24.6124 15.1313 24.8977 14.851C25.1831 14.5707 25.5216 14.3503 25.8934 14.2028C26.2651 14.0552 26.6626 13.9835 27.0625 13.9919C27.4624 14.0002 27.8566 14.0884 28.2219 14.2513C28.5872 14.4142 28.9162 14.6485 29.1896 14.9405C29.463 15.2324 29.6753 15.576 29.814 15.9512C29.9526 16.3264 30.0149 16.7255 29.997 17.1251C30.5848 17.2762 31.1305 17.5591 31.5928 17.9524C32.0551 18.3456 32.4218 18.8389 32.6652 19.3949C32.9086 19.9509 33.0223 20.5549 32.9976 21.1614C32.973 21.7678 32.8107 22.3606 32.523 22.8951C33.0288 23.306 33.4266 23.8343 33.6817 24.434C33.9368 25.0337 34.0415 25.6866 33.9867 26.336C33.9318 26.9854 33.7192 27.6116 33.3672 28.1601C33.0152 28.7085 32.5345 29.1627 31.967 29.4831C32.0371 30.0253 31.9953 30.5761 31.8441 31.1016C31.693 31.627 31.4357 32.1159 31.0882 32.538C30.7407 32.9601 30.3104 33.3065 29.8238 33.5558C29.3372 33.8051 28.8046 33.952 28.259 33.9874C27.7134 34.0228 27.1664 33.946 26.6516 33.7617C26.1369 33.5774 25.6654 33.2895 25.2663 32.9158C24.8671 32.5421 24.5488 32.0906 24.331 31.5891C24.1133 31.0876 24.0006 30.5468 24 30V17.0001Z" stroke="#5C00FF" stroke-width="2" stroke-linecap="round" stroke-linejoin="round"/>
<path d="M26.9999 25.0001C26.1604 24.7047 25.4272 24.1671 24.8933 23.4551C24.3593 22.7431 24.0484 21.8887 23.9999 21.0001C23.9515 21.8887 23.6406 22.7431 23.1066 23.4551C22.5726 24.1671 21.8395 24.7047 20.9999 25.0001M29.5989 18.5001C29.841 18.0806 29.9778 17.6089 29.9979 17.1251M18.0029 17.1251C18.0227 17.6088 18.1593 18.0806 18.4009 18.5001M15.4769 22.8961C15.6599 22.7471 15.8556 22.6145 16.0619 22.5001M31.9379 22.5001C32.1442 22.6145 32.34 22.7471 32.5229 22.8961M17.9999 30.0001C17.3108 30.0004 16.6332 29.8226 16.0329 29.4841M31.9669 29.4841C31.3667 29.8226 30.6891 30.0004 29.9999 30.0001" stroke="#5C00FF" stroke-width="2" stroke-linecap="round" stroke-linejoin="round"/>
</svg>
