<svg width="33" height="32" viewBox="0 0 33 32" fill="none" xmlns="http://www.w3.org/2000/svg">
<rect x="0.550903" width="31.8144" height="31.8144" rx="15.9072" fill="#544F0C"/>
<path d="M16.6219 21.1491C16.0608 21.1456 15.5193 21.0515 14.9973 20.8668C14.4788 20.6822 14.0136 20.3821 13.6017 19.9666C13.1898 19.5511 12.863 19.0007 12.6216 18.3153C12.3836 17.63 12.2647 16.7884 12.2647 15.7905C12.2682 14.8743 12.373 14.0558 12.579 13.3349C12.7885 12.6104 13.0868 11.9961 13.4738 11.4918C13.8645 10.9876 14.3314 10.604 14.8748 10.3413C15.4181 10.0749 16.0271 9.94176 16.7018 9.94176C17.4298 9.94176 18.0726 10.0838 18.6301 10.3679C19.1876 10.6484 19.6351 11.0302 19.9724 11.5131C20.3133 11.9961 20.5193 12.5376 20.5903 13.1378H18.3158C18.227 12.7578 18.0406 12.4595 17.7565 12.2429C17.4724 12.0263 17.1209 11.918 16.7018 11.918C15.9916 11.918 15.4518 12.2269 15.0825 12.8448C14.7167 13.4627 14.5303 14.3026 14.5232 15.3643H14.5978C14.7611 15.0412 14.9813 14.766 15.2583 14.5387C15.5388 14.3079 15.8567 14.1321 16.2118 14.0114C16.5704 13.8871 16.9486 13.8249 17.3464 13.8249C17.9927 13.8249 18.5679 13.9776 19.0722 14.283C19.5765 14.5849 19.9742 15.0004 20.2654 15.5295C20.5566 16.0586 20.7022 16.6641 20.7022 17.3459C20.7022 18.0845 20.53 18.7415 20.1855 19.3168C19.8446 19.892 19.367 20.343 18.7526 20.6697C18.1418 20.9929 17.4316 21.1527 16.6219 21.1491ZM16.6113 19.3381C16.9664 19.3381 17.2842 19.2528 17.5648 19.0824C17.8453 18.9119 18.0655 18.6811 18.2253 18.3899C18.3851 18.0987 18.465 17.772 18.465 17.4098C18.465 17.0476 18.3851 16.7227 18.2253 16.435C18.069 16.1474 17.8524 15.9183 17.5754 15.7479C17.2984 15.5774 16.9824 15.4922 16.6273 15.4922C16.3609 15.4922 16.1141 15.5419 15.8868 15.6413C15.6631 15.7408 15.466 15.8793 15.2956 16.0568C15.1287 16.2344 14.9973 16.4403 14.9014 16.6747C14.8055 16.9055 14.7576 17.1523 14.7576 17.4151C14.7576 17.7667 14.8375 18.0881 14.9973 18.3793C15.1606 18.6705 15.3808 18.9031 15.6578 19.0771C15.9383 19.2511 16.2562 19.3381 16.6113 19.3381Z" fill="#FEF237"/>
</svg>
