<svg width="48" height="48" viewBox="0 0 48 48" fill="none" xmlns="http://www.w3.org/2000/svg">
<rect width="48" height="48" rx="24" fill="#432521"/>
<path d="M16 23V31C16 31.5304 16.2107 32.0391 16.5858 32.4142C16.9609 32.7893 17.4696 33 18 33H30C30.5304 33 31.0391 32.7893 31.4142 32.4142C31.7893 32.0391 32 31.5304 32 31V23" stroke="#F15540" stroke-width="2" stroke-linecap="round" stroke-linejoin="round"/>
<path d="M24 17.5C24 16.5717 23.6313 15.6815 22.9749 15.0251C22.3185 14.3687 21.4283 14 20.5 14C19.837 14 19.2011 14.2634 18.7322 14.7322C18.2634 15.2011 18 15.837 18 16.5C18 17.163 18.2634 17.7989 18.7322 18.2678C19.2011 18.7366 19.837 19 20.5 19H24M24 17.5V19M24 17.5C24 16.5717 24.3687 15.6815 25.0251 15.0251C25.6815 14.3687 26.5717 14 27.5 14C28.163 14 28.7989 14.2634 29.2678 14.7322C29.7366 15.2011 30 15.837 30 16.5C30 16.8283 29.9353 17.1534 29.8097 17.4567C29.6841 17.76 29.4999 18.0356 29.2678 18.2678C29.0356 18.4999 28.76 18.6841 28.4567 18.8097C28.1534 18.9353 27.8283 19 27.5 19H24" stroke="#F15540" stroke-width="2" stroke-linejoin="round"/>
<path d="M24 23V33M15 19H33V23H15V19Z" stroke="#F15540" stroke-width="2" stroke-linecap="round" stroke-linejoin="round"/>
</svg>
