<svg width="24" height="24" viewBox="0 0 24 24" fill="none" xmlns="http://www.w3.org/2000/svg">
<path d="M17 1.75C16.31 1.75 15.75 2.31 15.75 3V21C15.75 21.3315 15.8817 21.6495 16.1161 21.8839C16.3505 22.1183 16.6685 22.25 17 22.25C17.3315 22.25 17.6495 22.1183 17.8839 21.8839C18.1183 21.6495 18.25 21.3315 18.25 21V3C18.25 2.31 17.69 1.75 17 1.75ZM12 7.75C11.31 7.75 10.75 8.31 10.75 9V21C10.75 21.3315 10.8817 21.6495 11.1161 21.8839C11.3505 22.1183 11.6685 22.25 12 22.25C12.3315 22.25 12.6495 22.1183 12.8839 21.8839C13.1183 21.6495 13.25 21.3315 13.25 21V9C13.25 8.31 12.69 7.75 12 7.75ZM7 14.75C6.31 14.75 5.75 15.31 5.75 16V21C5.75 21.3315 5.8817 21.6495 6.11612 21.8839C6.35054 22.1183 6.66848 22.25 7 22.25C7.33152 22.25 7.64946 22.1183 7.88388 21.8839C8.1183 21.6495 8.25 21.3315 8.25 21V16C8.25 15.31 7.69 14.75 7 14.75Z" fill="#00FF70"/>
</svg>
