<svg width="48" height="48" viewBox="0 0 48 48" fill="none" xmlns="http://www.w3.org/2000/svg">
<rect width="48" height="48" rx="24" fill="#183826"/>
<path d="M29 13.75C28.31 13.75 27.75 14.31 27.75 15V33C27.75 33.3315 27.8817 33.6495 28.1161 33.8839C28.3505 34.1183 28.6685 34.25 29 34.25C29.3315 34.25 29.6495 34.1183 29.8839 33.8839C30.1183 33.6495 30.25 33.3315 30.25 33V15C30.25 14.31 29.69 13.75 29 13.75ZM24 19.75C23.31 19.75 22.75 20.31 22.75 21V33C22.75 33.3315 22.8817 33.6495 23.1161 33.8839C23.3505 34.1183 23.6685 34.25 24 34.25C24.3315 34.25 24.6495 34.1183 24.8839 33.8839C25.1183 33.6495 25.25 33.3315 25.25 33V21C25.25 20.31 24.69 19.75 24 19.75ZM19 26.75C18.31 26.75 17.75 27.31 17.75 28V33C17.75 33.3315 17.8817 33.6495 18.1161 33.8839C18.3505 34.1183 18.6685 34.25 19 34.25C19.3315 34.25 19.6495 34.1183 19.8839 33.8839C20.1183 33.6495 20.25 33.3315 20.25 33V28C20.25 27.31 19.69 26.75 19 26.75Z" fill="#00FF70"/>
</svg>
