<svg width="48" height="48" viewBox="0 0 48 48" fill="none" xmlns="http://www.w3.org/2000/svg">
<rect width="48" height="48" rx="24" fill="#45321A"/>
<path d="M19.3333 34.5H28.6667M24 29.8334V34.5M24 29.8334C25.5471 29.8334 27.0308 29.2188 28.1248 28.1248C29.2188 27.0308 29.8333 25.5471 29.8333 24V14.6667H18.1667V24C18.1667 25.5471 18.7812 27.0308 19.8752 28.1248C20.9692 29.2188 22.4529 29.8334 24 29.8334ZM13.5 20.5C13.5 21.1189 13.7458 21.7124 14.1834 22.1499C14.621 22.5875 15.2145 22.8334 15.8333 22.8334C16.4522 22.8334 17.0457 22.5875 17.4832 22.1499C17.9208 21.7124 18.1667 21.1189 18.1667 20.5C18.1667 19.8812 17.9208 19.2877 17.4832 18.8501C17.0457 18.4125 16.4522 18.1667 15.8333 18.1667C15.2145 18.1667 14.621 18.4125 14.1834 18.8501C13.7458 19.2877 13.5 19.8812 13.5 20.5ZM29.8333 20.5C29.8333 21.1189 30.0792 21.7124 30.5168 22.1499C30.9543 22.5875 31.5478 22.8334 32.1667 22.8334C32.7855 22.8334 33.379 22.5875 33.8166 22.1499C34.2542 21.7124 34.5 21.1189 34.5 20.5C34.5 19.8812 34.2542 19.2877 33.8166 18.8501C33.379 18.4125 32.7855 18.1667 32.1667 18.1667C31.5478 18.1667 30.9543 18.4125 30.5168 18.8501C30.0792 19.2877 29.8333 19.8812 29.8333 20.5Z" stroke="#FF8E00" stroke-width="2" stroke-linecap="round" stroke-linejoin="round"/>
</svg>
