<svg width="28" height="28" viewBox="0 0 28 28" fill="none" xmlns="http://www.w3.org/2000/svg">
<path d="M9.33333 24.5H18.6667M14 19.8334V24.5M14 19.8334C15.5471 19.8334 17.0308 19.2188 18.1248 18.1248C19.2188 17.0308 19.8333 15.5471 19.8333 14V4.66669H8.16667V14C8.16667 15.5471 8.78125 17.0308 9.87521 18.1248C10.9692 19.2188 12.4529 19.8334 14 19.8334ZM3.5 10.5C3.5 11.1189 3.74583 11.7124 4.18342 12.1499C4.621 12.5875 5.21449 12.8334 5.83333 12.8334C6.45217 12.8334 7.04566 12.5875 7.48325 12.1499C7.92083 11.7124 8.16667 11.1189 8.16667 10.5C8.16667 9.88118 7.92083 9.28769 7.48325 8.8501C7.04566 8.41252 6.45217 8.16669 5.83333 8.16669C5.21449 8.16669 4.621 8.41252 4.18342 8.8501C3.74583 9.28769 3.5 9.88118 3.5 10.5ZM19.8333 10.5C19.8333 11.1189 20.0792 11.7124 20.5168 12.1499C20.9543 12.5875 21.5478 12.8334 22.1667 12.8334C22.7855 12.8334 23.379 12.5875 23.8166 12.1499C24.2542 11.7124 24.5 11.1189 24.5 10.5C24.5 9.88118 24.2542 9.28769 23.8166 8.8501C23.379 8.41252 22.7855 8.16669 22.1667 8.16669C21.5478 8.16669 20.9543 8.41252 20.5168 8.8501C20.0792 9.28769 19.8333 9.88118 19.8333 10.5Z" stroke="#FF8E00" stroke-width="2" stroke-linecap="round" stroke-linejoin="round"/>
</svg>
